<svg xmlns="http://www.w3.org/2000/svg"  viewBox="0 0 100 100" width="300px" height="300px"><circle cx="50" cy="50" r="37" fill="#e6edb7"/><circle cx="83" cy="15" r="4" fill="#f1bc19"/><circle cx="87" cy="24" r="2" fill="#9f8066"/><circle cx="81" cy="76" r="2" fill="#fbcd59"/><circle cx="15" cy="63" r="4" fill="#fbcd59"/><circle cx="25" cy="87" r="2" fill="#9f8066"/><circle cx="19.5" cy="43.5" r="2.5" fill="#fff"/><circle cx="79.5" cy="33.5" r="1.5" fill="#fff"/><circle cx="77" cy="13" r="1" fill="#f1bc19"/><path fill="#ee3e54" d="M66.719,73H35.281C31.26,73,28,69.74,28,65.719V34.281C28,30.26,31.26,27,35.281,27h31.438 C70.74,27,74,30.26,74,34.281v31.438C74,69.74,70.74,73,66.719,73z"/><path fill="#472b29" d="M66.719,73.7H35.281c-4.401,0-7.981-3.58-7.981-7.981V34.281c0-4.401,3.581-7.981,7.981-7.981 h31.438c4.401,0,7.981,3.58,7.981,7.981v31.438C74.7,70.12,71.12,73.7,66.719,73.7z M35.281,27.7 c-3.629,0-6.581,2.952-6.581,6.581v31.438c0,3.629,2.952,6.581,6.581,6.581h31.438c3.629,0,6.581-2.952,6.581-6.581V34.281 c0-3.629-2.952-6.581-6.581-6.581H35.281z"/><g><path fill="#472b29" d="M31.5,40.167c-0.276,0-0.5-0.224-0.5-0.5v-4.333C31,32.393,33.393,30,36.333,30h14 c0.276,0,0.5,0.224,0.5,0.5s-0.224,0.5-0.5,0.5h-14C33.944,31,32,32.944,32,35.333v4.333C32,39.943,31.776,40.167,31.5,40.167z"/></g><g><path fill="#472b29" d="M42.583,70h-6.25C33.393,70,31,67.607,31,64.667V44.333c0-0.276,0.224-0.5,0.5-0.5 s0.5,0.224,0.5,0.5v20.333C32,67.056,33.944,69,36.333,69h6.25c0.276,0,0.5,0.224,0.5,0.5S42.86,70,42.583,70z"/></g><g><path fill="#472b29" d="M65.667,70h-19.75c-0.276,0-0.5-0.224-0.5-0.5s0.224-0.5,0.5-0.5h19.75 C68.056,69,70,67.056,70,64.667v-5.083c0-0.276,0.224-0.5,0.5-0.5s0.5,0.224,0.5,0.5v5.083C71,67.607,68.607,70,65.667,70z"/></g><g><path fill="#472b29" d="M70.5,56.167c-0.276,0-0.5-0.224-0.5-0.5V35.333C70,32.944,68.056,31,65.667,31h-2.75 c-0.276,0-0.5-0.224-0.5-0.5s0.224-0.5,0.5-0.5h2.75C68.607,30,71,32.393,71,35.333v20.333C71,55.943,70.776,56.167,70.5,56.167z"/></g><g><path fill="#472b29" d="M59.5,31h-6.25c-0.276,0-0.5-0.224-0.5-0.5s0.224-0.5,0.5-0.5h6.25c0.276,0,0.5,0.224,0.5,0.5 S59.776,31,59.5,31z"/></g><g><path fill="#fff" d="M34.5,41.59l7.281,22.744l21.834-6.989l-7.281-22.744L34.5,41.59z M61.213,56.108l-18.195,5.824 l-6.116-19.105l18.195-5.824L61.213,56.108z"/><path fill="#472b29" d="M41.781,64.584c-0.106,0-0.204-0.068-0.238-0.174l-7.281-22.744 c-0.02-0.063-0.014-0.132,0.016-0.191c0.03-0.059,0.083-0.103,0.146-0.124l21.834-6.989c0.132-0.042,0.272,0.03,0.314,0.162 l7.281,22.744c0.02,0.063,0.014,0.132-0.016,0.191c-0.03,0.059-0.083,0.103-0.146,0.124l-21.834,6.989 C41.832,64.58,41.806,64.584,41.781,64.584z M34.814,41.752l7.128,22.268L63.3,57.183l-7.128-22.268L34.814,41.752z M43.018,62.182c-0.106,0-0.204-0.068-0.238-0.174l-6.116-19.105c-0.02-0.063-0.014-0.132,0.016-0.191 c0.03-0.059,0.083-0.103,0.146-0.124l18.195-5.824c0.131-0.042,0.271,0.03,0.314,0.162l6.116,19.105 c0.02,0.063,0.014,0.132-0.016,0.191c-0.03,0.059-0.083,0.103-0.146,0.124L43.094,62.17 C43.068,62.178,43.043,62.182,43.018,62.182z M37.216,42.989l5.963,18.629l17.719-5.672l-5.963-18.629L37.216,42.989z"/><rect width="24" height="25" x="43" y="37" fill="#fff"/><path fill="#ee3e54" d="M62.938,55.666c-1.571-0.743-3.06-1.517-4.5-1.95c-1.44-0.433-1.146-2.291-1.146-2.291 s0.327-0.464,0.458-0.712s0.36-1.362,0.458-1.95c0.426-0.124,0.557-0.495,0.557-0.495s0.229-0.712,0.458-1.486 c0.229-0.774-0.327-0.898-0.327-0.898c0.589-2.291,0.393-4.056-0.818-4.52c-0.7-1.008-2.101-1.316-2.979-1.354l0-0.008 c-0.03,0-0.067,0.003-0.098,0.004c-0.032,0-0.068-0.004-0.098-0.004l0,0.008c-0.878,0.039-2.279,0.347-2.979,1.354 c-1.211,0.464-1.408,2.229-0.818,4.52c0,0-0.557,0.124-0.327,0.898c0.229,0.774,0.458,1.486,0.458,1.486s0.131,0.372,0.557,0.495 c0.098,0.588,0.327,1.703,0.458,1.95s0.458,0.712,0.458,0.712s0.295,1.858-1.146,2.291c-1.44,0.433-2.929,1.207-4.5,1.95 S45.065,58.638,45,60c1.31,0,10,0,10,0s8.69,0,10,0C64.935,58.638,64.509,56.409,62.938,55.666z"/><path fill="#472b29" d="M65,60.25h-5.75C59.112,60.25,59,60.138,59,60s0.112-0.25,0.25-0.25h5.483 c-0.079-0.977-0.421-3.158-1.903-3.858c-0.288-0.136-0.572-0.273-0.854-0.409c-1.261-0.606-2.452-1.179-3.611-1.528 c-1.305-0.393-1.434-1.853-1.321-2.57c0.006-0.038,0.021-0.074,0.043-0.105c0.003-0.005,0.32-0.454,0.441-0.685 c0.097-0.184,0.316-1.176,0.433-1.875c0.016-0.094,0.084-0.172,0.177-0.199c0.293-0.085,0.389-0.334,0.39-0.338 c0,0,0.228-0.707,0.455-1.474c0.059-0.199,0.06-0.359,0.003-0.462c-0.053-0.095-0.146-0.121-0.15-0.123 c-0.132-0.036-0.217-0.173-0.183-0.305c0.591-2.296,0.348-3.836-0.666-4.224c-0.047-0.018-0.087-0.05-0.116-0.091 c-0.594-0.855-1.828-1.205-2.784-1.247c-0.015-0.001-0.029-0.002-0.043-0.006c-0.024,0.001-0.047,0.002-0.048,0.002l0,0 l-0.005-0.013c-0.024,0.01-0.051,0.016-0.079,0.017c-0.957,0.042-2.19,0.392-2.784,1.247c-0.029,0.041-0.069,0.073-0.116,0.091 c-1.014,0.389-1.257,1.928-0.666,4.224c0.017,0.066,0.006,0.135-0.029,0.193c-0.035,0.058-0.092,0.099-0.159,0.114l0,0 c0.001,0-0.092,0.026-0.145,0.121c-0.057,0.103-0.056,0.262,0.003,0.462c0.228,0.77,0.457,1.479,0.457,1.48 c0.001,0.001,0.098,0.247,0.388,0.332c0.092,0.027,0.161,0.104,0.177,0.199c0.117,0.699,0.336,1.691,0.433,1.875 c0.122,0.23,0.438,0.68,0.441,0.685c0.022,0.031,0.037,0.067,0.043,0.105c0.113,0.717-0.016,2.177-1.321,2.57 c-0.135,0.039-0.272-0.035-0.312-0.167c-0.04-0.132,0.035-0.272,0.167-0.312c1.092-0.328,1.009-1.673,0.978-1.959 c-0.091-0.131-0.328-0.476-0.439-0.688c-0.156-0.295-0.375-1.413-0.459-1.884c-0.423-0.192-0.564-0.578-0.57-0.596 c-0.002-0.006-0.232-0.721-0.462-1.498c-0.102-0.345-0.085-0.635,0.049-0.863c0.065-0.111,0.149-0.189,0.227-0.242 c-0.582-2.415-0.239-4.075,0.949-4.588c0.86-1.166,2.491-1.364,3.068-1.397c0.023-0.007,0.047-0.011,0.072-0.011 c0.004,0,0.061,0.002,0.065,0.002L55,40l0.032-0.248l0.065-0.002c0.026,0,0.051,0.004,0.075,0.011 c0.58,0.034,2.207,0.233,3.065,1.397c1.188,0.514,1.531,2.174,0.949,4.588c0.078,0.053,0.161,0.13,0.227,0.242 c0.134,0.228,0.151,0.518,0.049,0.863c-0.23,0.777-0.46,1.492-0.46,1.492c-0.008,0.024-0.149,0.41-0.572,0.603 c-0.084,0.47-0.303,1.588-0.459,1.883c-0.112,0.212-0.349,0.558-0.44,0.688c-0.033,0.292-0.122,1.627,0.979,1.958 c1.196,0.36,2.404,0.941,3.683,1.557c0.281,0.135,0.565,0.272,0.852,0.407c1.835,0.868,2.153,3.47,2.205,4.549 c0.003,0.068-0.021,0.135-0.068,0.184C65.134,60.222,65.068,60.25,65,60.25z"/><path fill="#472b29" d="M58,60.25h-9.292c-0.138,0-0.25-0.112-0.25-0.25s0.112-0.25,0.25-0.25H58 c0.138,0,0.25,0.112,0.25,0.25S58.138,60.25,58,60.25z"/><path fill="#472b29" d="M47.208,60.25H45c-0.068,0-0.134-0.028-0.181-0.077c-0.047-0.05-0.072-0.116-0.068-0.185 c0.052-1.079,0.37-3.681,2.205-4.549c0.286-0.135,0.569-0.271,0.85-0.406c0.702-0.338,1.365-0.657,2.031-0.942 c0.126-0.054,0.273,0.004,0.329,0.131c0.054,0.127-0.004,0.274-0.131,0.328c-0.656,0.281-1.314,0.598-2.011,0.933 c-0.282,0.136-0.566,0.272-0.853,0.408c-1.481,0.7-1.824,2.881-1.903,3.858h1.942c0.138,0,0.25,0.112,0.25,0.25 S47.347,60.25,47.208,60.25z"/><g><path fill="#472b29" d="M67,62.25H43c-0.138,0-0.25-0.112-0.25-0.25V37c0-0.138,0.112-0.25,0.25-0.25h24 c0.138,0,0.25,0.112,0.25,0.25v25C67.25,62.138,67.138,62.25,67,62.25z M43.25,61.75h23.5v-24.5h-23.5V61.75z"/></g></g></svg>