<?xml version="1.0" ?><!DOCTYPE svg  PUBLIC '-//W3C//DTD SVG 1.1//EN'  'http://www.w3.org/Graphics/SVG/1.1/DTD/svg11.dtd'><svg enable-background="new 0 0 128 128" id="Слой_1" version="1.1" viewBox="0 0 128 128" xml:space="preserve" xmlns="http://www.w3.org/2000/svg" xmlns:xlink="http://www.w3.org/1999/xlink"><g><path d="M64,2H49.5v12c-3.7,1.1-7.2,2.5-10.6,4.4l-8.5-8.5L9.9,30.4l8.5,8.5c-1.9,3.4-3.3,6.9-4.4,10.6H2v29h12   c1.1,3.7,2.5,7.2,4.4,10.6l-8.5,8.5l20.5,20.5l8.5-8.5c3.4,1.9,6.9,3.3,10.6,4.4v12H64c34.2,0,62-27.8,62-62S98.2,2,64,2z M64,122   H53.5v-11.1l-1.5-0.4c-4.3-1.1-8.5-2.8-12.4-5.1l-1.3-0.8l-7.9,7.9L15.6,97.6l7.9-7.9l-0.8-1.3c-2.3-3.9-4-8.1-5.1-12.4l-0.4-1.5H6   v-21h11.1l0.4-1.5c1.1-4.3,2.8-8.5,5.1-12.4l0.8-1.3l-7.9-7.9l14.8-14.8l7.9,7.9l1.3-0.8c3.9-2.3,8.1-4,12.4-5.1l1.5-0.4V6H64   c32,0,58,26,58,58S96,122,64,122z" fill="#3EBBC4"/><polygon fill="#3EBBC4" points="91.6,33.6 64,61.2 58.3,55.5 55.5,58.3 61.2,64 55.5,69.7 58.3,72.5 64,66.8 81,83.8 83.8,81    66.8,64 94.4,36.4  "/><path d="M64,92c-15.4,0-28-12.6-28-28s12.6-28,28-28v-4c-17.6,0-32,14.4-32,32s14.4,32,32,32V92z" fill="#3EBBC4"/><rect fill="#3EBBC4" height="3.3" width="4" x="62" y="22.3"/><rect fill="#3EBBC4" height="4" width="3.3" x="102.3" y="62"/><rect fill="#3EBBC4" height="3.3" width="4" x="62" y="102.3"/></g></svg>